<svg width="45" height="45" viewBox="0 0 45 45" fill="none" xmlns="http://www.w3.org/2000/svg">
<path d="M37.5 37.5H7.5C6.50544 37.5 5.55161 37.1049 4.84835 36.4017C4.14509 35.6984 3.75 34.7446 3.75 33.75V11.0869C3.79206 10.1209 4.20564 9.20842 4.9044 8.54006C5.60315 7.87171 6.53307 7.49909 7.5 7.5H37.5C38.4946 7.5 39.4484 7.89509 40.1516 8.59835C40.8549 9.30161 41.25 10.2554 41.25 11.25V33.75C41.25 34.7446 40.8549 35.6984 40.1516 36.4017C39.4484 37.1049 38.4946 37.5 37.5 37.5ZM7.5 14.7525V33.75H37.5V14.7525L22.5 24.75L7.5 14.7525ZM9 11.25L22.5 20.25L36 11.25H9Z" fill="#BEBEBE"/>
</svg>
