<svg width="1438" height="75" viewBox="0 0 1438 75" fill="none" xmlns="http://www.w3.org/2000/svg">
<path fill-rule="evenodd" clip-rule="evenodd" d="M0 0L14 15.2057C28 30.4113 56 60.5887 85 60.5887C113 60.5887 141 30.4113 169 25.2648C198 20.3522 226 40.4704 254 50.5296C282 60.5887 311 60.5887 339 52.1671C367 43.7455 395 26.9023 424 20.3522C452 13.5681 480 16.8432 508 30.4113C536 43.7455 565 67.3727 593 75.7943C621 84.2159 649 77.4319 678 62.4602C706 47.2545 734 23.6273 762 20.3522C791 16.8432 819 33.6864 847 43.7455C875 54.0386 904 57.3136 932 50.5296C960 43.7455 988 26.9023 1016 21.9897C1045 16.8432 1073 23.6273 1101 20.3522C1129 16.8432 1158 3.509 1186 10.0591C1214 16.8432 1242 43.7455 1271 48.892C1299 54.0386 1327 37.1954 1355 32.0488C1384 26.9023 1412 33.6864 1426 37.1954L1440 40.4704V91H1426C1412 91 1384 91 1355 91C1327 91 1299 91 1271 91C1242 91 1214 91 1186 91C1158 91 1129 91 1101 91C1073 91 1045 91 1016 91C988 91 960 91 932 91C904 91 875 91 847 91C819 91 791 91 762 91C734 91 706 91 678 91C649 91 621 91 593 91C565 91 536 91 508 91C480 91 452 91 424 91C395 91 367 91 339 91C311 91 282 91 254 91C226 91 198 91 169 91C141 91 113 91 85 91C56 91 28 91 14 91H0V0Z" fill="#3C469A"/>
</svg>
